<?xml version="1.0" encoding="UTF-8" standalone="no"?>
<svg
   xmlns:dc="http://purl.org/dc/elements/1.1/"
   xmlns:cc="http://creativecommons.org/ns#"
   xmlns:rdf="http://www.w3.org/1999/02/22-rdf-syntax-ns#"
   xmlns:svg="http://www.w3.org/2000/svg"
   xmlns="http://www.w3.org/2000/svg"
   width="256"
   height="256"
   viewBox="0 0 67.733332 67.733335"
   version="1.1"
   id="svg8">
  <defs
     id="defs2">
    <clipPath
       clipPathUnits="userSpaceOnUse"
       id="clipPath1059">
      <circle
         style="color:#000000;overflow:visible;fill:#00ff00;stroke-width:2.64583;stroke-linecap:round;stroke-linejoin:round;stroke-dashoffset:37.2;paint-order:stroke fill markers"
         id="circle1061"
         cx="-101.60001"
         cy="33.866665"
         r="33.866665" />
    </clipPath>
  </defs>
  <metadata
     id="metadata5">
    <rdf:RDF>
      <cc:Work
         rdf:about="">
        <dc:format>image/svg+xml</dc:format>
        <dc:type
           rdf:resource="http://purl.org/dc/dcmitype/StillImage" />
        <dc:title></dc:title>
      </cc:Work>
    </rdf:RDF>
  </metadata>
  <g
     id="layer1">
    <g
       id="g1051"
       transform="translate(135.46667)"
       clip-path="url(#clipPath1059)">
      <rect
         style="color:#000000;overflow:visible;fill:#1c1c1e;fill-opacity:1;stroke:none;stroke-width:1.524;stroke-linecap:round;stroke-linejoin:round;stroke-dashoffset:37.2;paint-order:stroke fill markers"
         id="rect965"
         width="73.025002"
         height="73.025002"
         x="-138.11249"
         y="-2.6458364" />
      <rect
         style="color:#000000;overflow:visible;fill:#8a87e3;fill-opacity:1;stroke:none;stroke-width:2.11667;stroke-linecap:round;stroke-linejoin:round;stroke-dashoffset:37.2;stroke-opacity:1;paint-order:stroke fill markers"
         id="rect967"
         width="57.17281"
         height="15.385677"
         x="-129.87686"
         y="56.867416" />
      <path
         style="color:#000000;overflow:visible;fill:#c589de;fill-opacity:1;stroke:#c589de;stroke-width:0.264583;stroke-linecap:round;stroke-linejoin:round;stroke-dashoffset:37.2;stroke-opacity:1;paint-order:stroke fill markers"
         d="m -129.87688,56.310543 v 2.575679 l 9.83191,3.91862 c 0,0 16.22952,-1.332387 19.19658,-1.328731 2.96706,0.0037 19.30952,1.109864 19.30952,1.109864 l 8.8348,-5.118198 v -2.400745 z"
         id="path969" />
      <path
         style="color:#000000;overflow:visible;fill:#d8676c;fill-opacity:1;stroke:none;stroke-width:2.11667;stroke-linecap:round;stroke-linejoin:round;stroke-dashoffset:37.2;stroke-opacity:1;paint-order:stroke fill markers"
         d="m -118.12071,38.916042 c 11.09645,2.171118 22.89975,1.829967 33.63514,-0.361765 0,0 -5.82467,8.296948 -16.91334,8.256433 -11.53801,-0.04216 -16.7218,-7.894668 -16.7218,-7.894668 z"
         id="path971" />
      <path
         id="path973"
         style="color:#000000;overflow:visible;fill:#c6c8d1;fill-opacity:1;stroke:#c6c8d1;stroke-width:0.264583;stroke-linecap:round;stroke-linejoin:round;stroke-dashoffset:37.2;stroke-opacity:1;paint-order:stroke fill markers"
         d="m -99.6966,20.766977 a 5.0313844,5.0313844 0 0 1 0.88241,1.67983 5.0313844,5.0313844 0 0 1 -3.35868,6.27318 5.0313844,5.0313844 0 0 1 -3.05976,-0.0469 5.0313844,5.0313844 0 0 0 5.39127,1.67884 5.0313844,5.0313844 0 0 0 3.35818,-6.27319 5.0313844,5.0313844 0 0 0 -3.21342,-3.31173 z" />
      <path
         style="color:#000000;overflow:visible;fill:none;fill-opacity:1;stroke:#c6c8d1;stroke-width:1.05833;stroke-linecap:round;stroke-linejoin:round;stroke-dashoffset:37.2;stroke-opacity:1;paint-order:stroke fill markers"
         d="m -81.02526,39.865767 -2.24192,-1.390625 0.64318,2.621455"
         id="path975" />
      <path
         style="color:#000000;overflow:visible;fill:#d8cf88;fill-opacity:1;stroke:#d8cf88;stroke-width:0.264583;stroke-linecap:round;stroke-linejoin:round;stroke-dashoffset:37.2;stroke-opacity:1;paint-order:stroke fill markers"
         d="m -129.87688,54.442926 c 0,0 6.92325,-3.705333 9.52017,-3.65808 1.98145,0.03605 16.4094,2.458892 19.15437,2.517509 2.54442,0.05433 17.11252,-3.272225 19.05146,-2.971716 2.79347,0.432948 9.44681,4.462473 9.44681,4.462473 v 2.084607 c -19.84032,2.033574 -38.75036,1.896486 -57.17281,0.62172 z"
         id="path977" />
      <path
         style="color:#000000;overflow:visible;fill:none;stroke:#d8996c;stroke-width:2.11667;stroke-linecap:round;stroke-linejoin:round;stroke-dashoffset:37.2;stroke-opacity:1;paint-order:stroke fill markers"
         d="m -116.55921,17.128747 c -0.60696,11.7498 -0.44482,23.754381 -3.75326,33.703176"
         id="path979" />
      <path
         style="color:#000000;overflow:visible;fill:none;stroke:#d8996c;stroke-width:2.11667;stroke-linecap:round;stroke-linejoin:round;stroke-dashoffset:37.2;stroke-opacity:1;paint-order:stroke fill markers"
         d="m -86.52306,18.016947 c 0.88603,11.32279 0.99147,22.448465 4.15429,32.405194"
         id="path981" />
      <path
         style="color:#000000;overflow:visible;fill:none;fill-opacity:1;stroke:#c6c8d1;stroke-width:1.05833;stroke-linecap:round;stroke-linejoin:round;stroke-dashoffset:37.2;stroke-opacity:1;paint-order:stroke fill markers"
         d="m -119.29937,38.985177 c 0.56524,0.125609 2.40681,0.413982 2.40681,0.413982"
         id="path983" />
      <path
         style="color:#000000;overflow:visible;fill:none;fill-opacity:1;stroke:#c6c8d1;stroke-width:1.05833;stroke-linecap:round;stroke-linejoin:round;stroke-dashoffset:37.2;stroke-opacity:1;paint-order:stroke fill markers"
         d="m -83.42341,38.402563 -2.42181,0.63743"
         id="path985" />
      <g
         id="g1001"
         transform="matrix(0.95607957,0,0,0.95607957,-133.96563,130.25438)"
         style="stroke-width:1.04594">
        <path
           style="color:#000000;overflow:visible;fill:#98c897;fill-opacity:1;stroke:#98c897;stroke-width:0.276737;stroke-linecap:round;stroke-linejoin:round;stroke-miterlimit:4;stroke-dasharray:none;stroke-dashoffset:37.2;stroke-opacity:1;paint-order:stroke fill markers"
           d="m 50.32977,-118.99286 c 0,0 3.483732,3.13512 4.392111,6.00356 0.908378,2.86843 -0.451589,4.0547 -0.451589,4.0547 0,0 -1.278753,-3.0762 -2.10521,-4.51412 -0.826457,-1.43791 -3.2799,-4.14176 -3.2799,-4.14176"
           id="path989" />
        <path
           style="color:#000000;overflow:visible;fill:#98c897;fill-opacity:1;stroke:#98c897;stroke-width:0.276737;stroke-linecap:round;stroke-linejoin:round;stroke-miterlimit:4;stroke-dasharray:none;stroke-dashoffset:37.2;stroke-opacity:1;paint-order:stroke fill markers"
           d="m 49.625051,-119.50611 c 0,0 -3.637489,3.56787 -4.21634,6.5205 -0.578853,2.95262 0.846013,4.64181 0.846013,4.64181 0,0 0.484265,-2.58 1.143163,-4.10201 0.658898,-1.522 3.332116,-6.51226 3.332116,-6.51226"
           id="path991" />
        <path
           style="color:#000000;overflow:visible;fill:#98c897;fill-opacity:1;stroke:#98c897;stroke-width:0.276737;stroke-linecap:round;stroke-linejoin:round;stroke-miterlimit:4;stroke-dasharray:none;stroke-dashoffset:37.2;stroke-opacity:1;paint-order:stroke fill markers"
           d="m 49.963049,-119.94366 c 0,0 4.332125,-0.0821 7.238638,2.31983 2.906513,2.40197 1.577109,3.79532 1.577109,3.79532 0,0 -2.178474,-2.02076 -3.670731,-2.7445 -1.492258,-0.72375 -4.968826,-1.77027 -4.968826,-1.77027"
           id="path993" />
        <path
           style="color:#000000;overflow:visible;fill:#98c897;fill-opacity:1;stroke:#98c897;stroke-width:0.276737;stroke-linecap:round;stroke-linejoin:round;stroke-miterlimit:4;stroke-dasharray:none;stroke-dashoffset:37.2;stroke-opacity:1;paint-order:stroke fill markers"
           d="m 48.642925,-118.63505 c 0,0 0.704386,-3.52639 4.396114,-4.3242 3.691728,-0.79781 4.23992,2.14688 4.23992,2.14688 0,0 -1.106028,-0.90402 -3.401801,-0.26503 -2.295772,0.63899 -4.381206,3.41238 -4.381206,3.41238"
           id="path995" />
        <path
           style="color:#000000;overflow:visible;fill:#98c897;fill-opacity:1;stroke:#98c897;stroke-width:0.276737;stroke-linecap:round;stroke-linejoin:round;stroke-miterlimit:4;stroke-dasharray:none;stroke-dashoffset:37.2;stroke-opacity:1;paint-order:stroke fill markers"
           d="m 50.37532,-119.58806 c 0,0 -0.105441,-1.60579 -3.022506,-2.80082 -2.917064,-1.19503 -4.315457,1.05969 -4.315457,1.05969 0,0 1.028366,-0.40245 3.207323,0.38246 2.178957,0.78491 2.799622,2.918 2.799622,2.918"
           id="path997" />
        <path
           style="color:#000000;overflow:visible;fill:#98c897;fill-opacity:1;stroke:#98c897;stroke-width:0.276737;stroke-linecap:round;stroke-linejoin:round;stroke-miterlimit:4;stroke-dasharray:none;stroke-dashoffset:37.2;stroke-opacity:1;paint-order:stroke fill markers"
           d="m 50.861036,-120.21409 c 0,0 -5.383919,0.50359 -7.761696,2.34731 -2.377772,1.84371 -1.017357,3.69103 -1.017357,3.69103 0,0 1.193442,-1.66098 2.690718,-2.37428 1.497275,-0.7133 6.522145,-2.25709 6.522145,-2.25709"
           id="path999" />
      </g>
      <path
         style="color:#000000;overflow:visible;fill:none;fill-opacity:1;stroke:#c6c8d1;stroke-width:1.05833;stroke-linecap:round;stroke-linejoin:round;stroke-dashoffset:37.2;stroke-opacity:1;paint-order:stroke fill markers"
         d="m -121.67467,40.321069 2.25537,-1.247073 -0.91692,2.897395"
         id="path1003" />
      <g
         id="g1017"
         transform="matrix(-0.95607957,0,0,0.95607957,-68.98232,130.78355)"
         style="stroke-width:1.04594">
        <path
           style="color:#000000;overflow:visible;fill:#98c897;fill-opacity:1;stroke:#98c897;stroke-width:0.276737;stroke-linecap:round;stroke-linejoin:round;stroke-miterlimit:4;stroke-dasharray:none;stroke-dashoffset:37.2;stroke-opacity:1;paint-order:stroke fill markers"
           d="m 50.32977,-118.99286 c 0,0 3.483732,3.13512 4.392111,6.00356 0.908378,2.86843 -0.451589,4.0547 -0.451589,4.0547 0,0 -1.278753,-3.0762 -2.10521,-4.51412 -0.826457,-1.43791 -3.2799,-4.14176 -3.2799,-4.14176"
           id="path1005" />
        <path
           style="color:#000000;overflow:visible;fill:#98c897;fill-opacity:1;stroke:#98c897;stroke-width:0.276737;stroke-linecap:round;stroke-linejoin:round;stroke-miterlimit:4;stroke-dasharray:none;stroke-dashoffset:37.2;stroke-opacity:1;paint-order:stroke fill markers"
           d="m 49.625051,-119.50611 c 0,0 -3.637489,3.56787 -4.21634,6.5205 -0.578853,2.95262 0.846013,4.64181 0.846013,4.64181 0,0 0.484265,-2.58 1.143163,-4.10201 0.658898,-1.522 3.332116,-6.51226 3.332116,-6.51226"
           id="path1007" />
        <path
           style="color:#000000;overflow:visible;fill:#98c897;fill-opacity:1;stroke:#98c897;stroke-width:0.276737;stroke-linecap:round;stroke-linejoin:round;stroke-miterlimit:4;stroke-dasharray:none;stroke-dashoffset:37.2;stroke-opacity:1;paint-order:stroke fill markers"
           d="m 49.963049,-119.94366 c 0,0 4.332125,-0.0821 7.238638,2.31983 2.906513,2.40197 1.577109,3.79532 1.577109,3.79532 0,0 -2.178474,-2.02076 -3.670731,-2.7445 -1.492258,-0.72375 -4.968826,-1.77027 -4.968826,-1.77027"
           id="path1009" />
        <path
           style="color:#000000;overflow:visible;fill:#98c897;fill-opacity:1;stroke:#98c897;stroke-width:0.276737;stroke-linecap:round;stroke-linejoin:round;stroke-miterlimit:4;stroke-dasharray:none;stroke-dashoffset:37.2;stroke-opacity:1;paint-order:stroke fill markers"
           d="m 48.642925,-118.63505 c 0,0 0.704386,-3.52639 4.396114,-4.3242 3.691728,-0.79781 4.23992,2.14688 4.23992,2.14688 0,0 -1.106028,-0.90402 -3.401801,-0.26503 -2.295772,0.63899 -4.381206,3.41238 -4.381206,3.41238"
           id="path1011" />
        <path
           style="color:#000000;overflow:visible;fill:#98c897;fill-opacity:1;stroke:#98c897;stroke-width:0.276737;stroke-linecap:round;stroke-linejoin:round;stroke-miterlimit:4;stroke-dasharray:none;stroke-dashoffset:37.2;stroke-opacity:1;paint-order:stroke fill markers"
           d="m 50.37532,-119.58806 c 0,0 -0.105441,-1.60579 -3.022506,-2.80082 -2.917064,-1.19503 -4.315457,1.05969 -4.315457,1.05969 0,0 1.4661,-0.40243 3.207323,0.38246 1.741223,0.78489 2.799622,2.918 2.799622,2.918"
           id="path1013" />
        <path
           style="color:#000000;overflow:visible;fill:#98c897;fill-opacity:1;stroke:#98c897;stroke-width:0.276737;stroke-linecap:round;stroke-linejoin:round;stroke-miterlimit:4;stroke-dasharray:none;stroke-dashoffset:37.2;stroke-opacity:1;paint-order:stroke fill markers"
           d="m 50.861036,-120.21409 c 0,0 -5.383919,0.50359 -7.761696,2.34731 -2.377772,1.84371 -1.017357,3.69103 -1.017357,3.69103 0,0 1.193442,-1.66098 2.690718,-2.37428 1.497275,-0.7133 6.522145,-2.25709 6.522145,-2.25709"
           id="path1015" />
      </g>
      <path
         style="color:#000000;overflow:visible;fill:none;fill-opacity:1;stroke:#c6c8d1;stroke-width:1.05833;stroke-linecap:round;stroke-linejoin:round;stroke-dashoffset:37.2;stroke-opacity:1;paint-order:stroke fill markers"
         d="m -119.35409,39.567147 c 0.56524,0.125609 2.29074,0.723507 2.29074,0.723507"
         id="path1019" />
      <path
         style="color:#000000;overflow:visible;fill:none;fill-opacity:1;stroke:#c6c8d1;stroke-width:1.05833;stroke-linecap:round;stroke-linejoin:round;stroke-dashoffset:37.2;stroke-opacity:1;paint-order:stroke fill markers"
         d="m -83.45546,38.885627 -2.27369,0.928179"
         id="path1021" />
    </g>
  </g>
</svg>
